<?xml version="1.0" standalone="no"?>
<!DOCTYPE svg PUBLIC "-//W3C//DTD SVG 20010904//EN"
 "http://www.w3.org/TR/2001/REC-SVG-20010904/DTD/svg10.dtd">
<svg version="1.0" xmlns="http://www.w3.org/2000/svg"
 width="900.000000pt" height="500.000000pt" viewBox="0 0 900.000000 500.000000"
 preserveAspectRatio="xMidYMid meet">

<g transform="translate(0.000000,500.000000) scale(0.100000,-0.100000)"
fill="#000000" stroke="none">
<path d="M1402 3343 c-33 -47 -1204 -1906 -1209 -1920 -3 -7 0 -20 7 -28 11
-13 59 -15 314 -15 227 0 306 3 318 13 9 6 143 215 299 462 155 248 287 456
294 463 10 11 32 -17 115 -148 57 -89 110 -164 118 -167 7 -3 22 3 31 13 25
27 299 466 303 485 5 25 -532 869 -553 869 -10 0 -26 -12 -37 -27z"/>
<path d="M4427 2908 c-16 -12 -17 -67 -15 -763 l3 -750 205 0 205 0 3 243 2
242 143 -1 142 0 183 -212 c100 -117 196 -227 212 -244 l30 -33 235 0 c228 0
235 1 235 20 0 12 -88 117 -219 262 l-218 243 56 20 c31 12 89 42 128 68 127
81 199 206 210 362 10 147 -31 262 -131 360 -107 106 -254 166 -452 185 -154
15 -936 13 -957 -2z m972 -329 c109 -23 173 -93 173 -189 0 -101 -66 -168
-186 -189 -34 -6 -174 -11 -309 -11 l-247 0 0 200 0 200 260 0 c145 0 281 -5
309 -11z"/>
<path d="M6207 2913 c-4 -3 -7 -342 -7 -753 0 -567 3 -749 12 -758 15 -15 355
-17 378 -2 13 8 16 78 20 497 l5 488 255 -337 c140 -186 260 -337 266 -338 7
0 128 154 270 343 l259 342 3 -494 c2 -381 5 -497 15 -503 6 -4 94 -8 194 -8
152 0 184 3 197 16 14 14 16 95 16 749 0 403 -3 740 -6 749 -5 14 -35 16 -224
16 l-219 0 -34 -42 c-19 -24 -130 -175 -247 -336 l-212 -293 -62 84 c-33 46
-142 197 -241 335 l-180 252 -226 0 c-124 0 -229 -3 -232 -7z"/>
<path d="M8401 2906 c-8 -9 -10 -217 -9 -762 l3 -749 205 0 205 0 3 750 c2
696 1 751 -15 763 -25 18 -376 17 -392 -2z"/>
</g>
</svg>
